<svg width="159" height="57" viewBox="0 0 159 57" fill="none" xmlns="http://www.w3.org/2000/svg">
<path d="M30 7.54C30 8.34 29.8267 8.94 29.48 9.34C29.16 9.74 28.6267 9.94 27.88 9.94C27.8267 10.5 27.7067 11.4733 27.52 12.86C27.2533 14.7267 27.1067 15.7667 27.08 15.98C24.7067 33.66 19.76 42.5 12.24 42.5C10.0267 42.5 8.29333 41.8733 7.04 40.62C5.81333 39.3667 5.2 37.7933 5.2 35.9C5.2 32.5133 6.64 29.5267 9.52 26.94C12.4 24.3267 16.1867 22.1667 20.88 20.46C21.1733 18.5667 21.4 16.8733 21.56 15.38L22.28 9.34C20.68 9.18 19.1867 9.1 17.8 9.1C14.0933 9.1 10.36 8.98 10.36 8.98C10.36 8.98 6.35999 9.09331 6.35999 10.72C6.35999 11.52 6.35998 12.72 6.35998 12.72C6.35998 12.72 6.39294 14.187 5.85998 14.72C5.35998 15.22 3.35998 15.22 3.35998 15.22C3.35998 15.22 2.14001 15.28 1.5 15C0.859988 15.0962 0.859985 12.22 0.859985 12.22C0.859985 12.22 0.859985 10.9667 0.859985 9.34C0.859985 2.94 7.8 4.34 19 4.34C22.2533 4.34 25.16 4.66 27.72 5.3C29.24 5.67333 30 6.42 30 7.54ZM12.76 38.22C14.0667 38.22 15.3733 37.2333 16.68 35.26C17.9867 33.2867 19.1333 29.8333 20.12 24.9C13.6133 27.7533 10.36 31.2467 10.36 35.38C10.36 36.2867 10.5733 36.9933 11 37.5C11.4267 37.98 12.0133 38.22 12.76 38.22Z" fill="#00C2FF"/>
<path d="M41.4159 38.32C37.8693 38.32 35.0293 37.6534 32.8959 36.32C30.7626 34.96 29.6959 32.8934 29.6959 30.12C29.6959 28.6534 29.9493 27.5334 30.4559 26.76C30.9626 25.9867 31.7093 25.6 32.6959 25.6C33.4159 25.6 34.0026 25.7867 34.4559 26.16C34.9093 26.5334 35.1359 27.0134 35.1359 27.6C35.1359 28.1334 35.0959 28.6 35.0159 29C35.0159 29.1067 34.9893 29.2934 34.9359 29.56C34.9093 29.8267 34.8959 30.1067 34.8959 30.4C34.8959 31.6 35.4959 32.4934 36.6959 33.08C37.9226 33.6667 39.6293 33.96 41.8159 33.96C44.0826 33.96 45.8559 33.56 47.1359 32.76C48.4159 31.9334 49.0559 30.7867 49.0559 29.32C49.0559 28.4134 48.7626 27.64 48.1759 27C47.5893 26.3334 46.8559 25.7867 45.9759 25.36C45.0959 24.9067 43.8559 24.36 42.2559 23.72C40.2026 22.92 38.5226 22.16 37.2159 21.44C35.9359 20.72 34.8293 19.7467 33.8959 18.52C32.9893 17.2667 32.5359 15.72 32.5359 13.88C32.5359 11.96 33.0426 10.2534 34.0559 8.76003C35.0959 7.26669 36.5759 6.10669 38.4959 5.28003C40.4426 4.45336 42.7226 4.04003 45.3359 4.04003C47.2826 4.04003 49.0693 4.33336 50.6959 4.92003C52.3226 5.48002 53.6159 6.34669 54.5759 7.52003C55.5626 8.69336 56.0559 10.1334 56.0559 11.84C56.0559 13.52 55.8026 14.7867 55.2959 15.64C54.7893 16.4934 54.0426 16.92 53.0559 16.92C52.3626 16.92 51.7759 16.7067 51.2959 16.28C50.8426 15.8534 50.6159 15.3467 50.6159 14.76C50.6159 14.2534 50.6559 13.7867 50.7359 13.36C50.8159 12.56 50.8559 12.0534 50.8559 11.84C50.8559 10.72 50.3093 9.86669 49.2159 9.28002C48.1226 8.69336 46.7626 8.40003 45.1359 8.40003C42.8426 8.40003 41.0826 8.82669 39.8559 9.68003C38.6559 10.5067 38.0559 11.68 38.0559 13.2C38.0559 14.2134 38.3626 15.08 38.9759 15.8C39.6159 16.52 40.4026 17.12 41.3359 17.6C42.2693 18.08 43.5759 18.6534 45.2559 19.32C47.2826 20.1467 48.9093 20.8934 50.1359 21.56C51.3626 22.2267 52.4026 23.1334 53.2559 24.28C54.1359 25.4267 54.5759 26.84 54.5759 28.52C54.5759 31.6667 53.3759 34.0934 50.9759 35.8C48.6026 37.48 45.4159 38.32 41.4159 38.32Z" fill="#00C2FF"/>
<path d="M75.4397 29.08C75.7864 29.08 76.053 29.24 76.2397 29.56C76.453 29.88 76.5597 30.32 76.5597 30.88C76.5597 31.9467 76.3064 32.7734 75.7997 33.36C74.653 34.7734 73.3997 35.9334 72.0397 36.84C70.6797 37.7467 69.1197 38.2 67.3597 38.2C61.9197 38.2 59.1997 34.3734 59.1997 26.72C59.1997 25.5467 59.2397 24.36 59.3197 23.16H57.7597C56.9597 23.16 56.413 23.0134 56.1197 22.72C55.853 22.4267 55.7197 21.96 55.7197 21.32C55.7197 19.8267 56.3197 19.08 57.5197 19.08H59.7997C60.253 16.1467 60.9464 13.4667 61.8797 11.04C62.813 8.61336 63.933 6.68002 65.2397 5.24002C66.573 3.80003 67.9997 3.08003 69.5197 3.08003C70.6397 3.08003 71.5197 3.57336 72.1597 4.56003C72.7997 5.54669 73.1197 6.78669 73.1197 8.28003C73.1197 12.4134 71.3864 16.0134 67.9197 19.08H72.3997C72.8264 19.08 73.133 19.1734 73.3197 19.36C73.5064 19.5467 73.5997 19.8934 73.5997 20.4C73.5997 22.24 72.093 23.16 69.0797 23.16H64.1997C64.1464 24.4934 64.1197 25.5334 64.1197 26.28C64.1197 29.0534 64.4397 31 65.0797 32.12C65.7464 33.24 66.7864 33.8 68.1997 33.8C69.3464 33.8 70.3597 33.4534 71.2397 32.76C72.1197 32.0667 73.1597 31.0267 74.3597 29.64C74.6797 29.2667 75.0397 29.08 75.4397 29.08ZM68.4397 6.92003C68.0397 6.92003 67.5864 7.42669 67.0797 8.44003C66.5997 9.42669 66.133 10.8134 65.6797 12.6C65.253 14.36 64.893 16.32 64.5997 18.48C66.173 17.12 67.3464 15.6 68.1197 13.92C68.9197 12.2134 69.3197 10.6667 69.3197 9.28002C69.3197 7.70669 69.0264 6.92003 68.4397 6.92003Z" fill="#00C2FF"/>
<path d="M93.7828 29.16C94.1295 29.16 94.3962 29.3334 94.5828 29.68C94.7962 30 94.9028 30.4134 94.9028 30.92C94.9028 31.5334 94.8095 32.0134 94.6228 32.36C94.4362 32.7067 94.1428 33.0134 93.7428 33.28L86.0628 38.44C85.0495 43.96 83.7162 48.2934 82.0628 51.44C80.4362 54.6134 78.3562 56.2 75.8228 56.2C74.4628 56.2 73.3562 55.7734 72.5028 54.92C71.6495 54.0934 71.2228 53 71.2228 51.64C71.2228 50.3867 71.5028 49.1067 72.0628 47.8C72.6495 46.4934 73.7162 44.9867 75.2628 43.28C76.8362 41.6 79.0495 39.6667 81.9028 37.48L82.0228 36.56C82.2095 35.5734 82.4228 34.16 82.6628 32.32C82.1295 34.24 81.3828 35.7067 80.4228 36.72C79.4628 37.7067 78.4495 38.2 77.3828 38.2C76.1828 38.2 75.1962 37.6534 74.4228 36.56C73.6762 35.44 73.3028 34.0534 73.3028 32.4C73.3028 30.4 73.4362 28.5734 73.7028 26.92C73.9695 25.24 74.4095 23.4667 75.0228 21.6C75.2895 20.8 75.6628 20.2267 76.1428 19.88C76.6228 19.5334 77.3828 19.36 78.4228 19.36C79.0095 19.36 79.4095 19.4534 79.6228 19.64C79.8628 19.8267 79.9828 20.1067 79.9828 20.48C79.9828 20.6934 79.8362 21.4134 79.5428 22.64C79.2762 23.6267 79.0628 24.52 78.9028 25.32C78.6895 26.4134 78.5028 27.4667 78.3428 28.48C78.1828 29.4667 78.1028 30.28 78.1028 30.92C78.1028 31.9334 78.3828 32.44 78.9428 32.44C79.3428 32.44 79.8362 32.04 80.4228 31.24C81.0362 30.44 81.6762 29.2267 82.3428 27.6C83.0362 25.9734 83.7028 23.9734 84.3428 21.6C84.5562 20.8 84.8762 20.2267 85.3028 19.88C85.7562 19.5334 86.4228 19.36 87.3028 19.36C87.9162 19.36 88.3428 19.44 88.5828 19.6C88.8228 19.76 88.9428 20.0267 88.9428 20.4C88.9428 21.0667 88.5962 23.36 87.9028 27.28L86.8628 33.72C88.9162 32.1734 90.9162 30.76 92.8628 29.48C93.2095 29.2667 93.5162 29.16 93.7828 29.16ZM76.2628 52.32C76.9295 52.32 77.6762 51.5467 78.5028 50C79.3295 48.4534 80.1562 45.88 80.9828 42.28C78.9295 44.0134 77.4362 45.5867 76.5028 47C75.5962 48.44 75.1428 49.6934 75.1428 50.76C75.1428 51.2134 75.2228 51.5867 75.3828 51.88C75.5695 52.1734 75.8628 52.32 76.2628 52.32Z" fill="#00C2FF"/>
<path d="M107.603 29.08C107.95 29.08 108.217 29.24 108.403 29.56C108.617 29.88 108.723 30.32 108.723 30.88C108.723 31.9467 108.47 32.7734 107.963 33.36C106.817 34.7734 105.563 35.9334 104.203 36.84C102.87 37.7467 101.35 38.2 99.6435 38.2C97.2968 38.2 95.5501 37.1334 94.4035 35C93.2835 32.8667 92.7235 30.1067 92.7235 26.72C92.7235 23.4667 93.1368 19.76 93.9635 15.6C94.8168 11.44 96.0568 7.86669 97.6835 4.88002C99.3368 1.89336 101.297 0.400024 103.563 0.400024C104.843 0.400024 105.843 1.00002 106.563 2.20003C107.31 3.37336 107.683 5.06669 107.683 7.28003C107.683 10.4534 106.803 14.1334 105.043 18.32C103.283 22.5067 100.897 26.6534 97.8835 30.76C98.0701 31.8534 98.3768 32.64 98.8035 33.12C99.2301 33.5734 99.7901 33.8 100.483 33.8C101.577 33.8 102.537 33.4934 103.363 32.88C104.19 32.24 105.243 31.16 106.523 29.64C106.843 29.2667 107.203 29.08 107.603 29.08ZM102.683 4.36003C102.07 4.36003 101.377 5.46669 100.603 7.68003C99.8301 9.89336 99.1501 12.64 98.5635 15.92C97.9768 19.2 97.6568 22.3467 97.6035 25.36C99.4968 22.24 101.003 19.12 102.123 16C103.243 12.8534 103.803 9.98669 103.803 7.40002C103.803 5.37336 103.43 4.36003 102.683 4.36003Z" fill="#00C2FF"/>
<path d="M110.73 16.72C109.61 16.72 108.77 16.4667 108.21 15.96C107.65 15.4267 107.37 14.6934 107.37 13.76C107.37 12.8267 107.73 12.0534 108.45 11.44C109.197 10.8 110.117 10.48 111.21 10.48C112.197 10.48 112.997 10.72 113.61 11.2C114.224 11.68 114.53 12.36 114.53 13.24C114.53 14.3067 114.184 15.16 113.49 15.8C112.797 16.4134 111.877 16.72 110.73 16.72ZM110.41 38.2C108.677 38.2 107.41 37.5867 106.61 36.36C105.837 35.1334 105.45 33.5067 105.45 31.48C105.45 30.28 105.597 28.7467 105.89 26.88C106.21 24.9867 106.61 23.2267 107.09 21.6C107.33 20.7467 107.65 20.16 108.05 19.84C108.45 19.52 109.09 19.36 109.97 19.36C111.33 19.36 112.01 19.8134 112.01 20.72C112.01 21.3867 111.757 22.9334 111.25 25.36C110.61 28.2934 110.29 30.28 110.29 31.32C110.29 32.12 110.397 32.7334 110.61 33.16C110.824 33.5867 111.184 33.8 111.69 33.8C112.17 33.8 112.77 33.4667 113.49 32.8C114.21 32.1334 115.17 31.08 116.37 29.64C116.69 29.2667 117.05 29.08 117.45 29.08C117.797 29.08 118.064 29.24 118.25 29.56C118.464 29.88 118.57 30.32 118.57 30.88C118.57 31.9467 118.317 32.7734 117.81 33.36C115.17 36.5867 112.704 38.2 110.41 38.2Z" fill="#00C2FF"/>
<path d="M118.174 38.2C117.161 38.2 116.441 37.6667 116.014 36.6C115.614 35.5334 115.414 33.8267 115.414 31.48C115.414 28.0134 115.907 24.72 116.894 21.6C117.134 20.8267 117.521 20.2667 118.054 19.92C118.614 19.5467 119.387 19.36 120.374 19.36C120.907 19.36 121.281 19.4267 121.494 19.56C121.707 19.6934 121.814 19.9467 121.814 20.32C121.814 20.7467 121.614 21.7067 121.214 23.2C120.947 24.2667 120.734 25.2 120.574 26C120.414 26.8 120.281 27.7867 120.174 28.96C121.054 26.6667 122.041 24.8 123.134 23.36C124.227 21.92 125.294 20.8934 126.334 20.28C127.401 19.6667 128.374 19.36 129.254 19.36C130.987 19.36 131.854 20.2267 131.854 21.96C131.854 23 131.561 24.88 130.974 27.6C130.467 29.92 130.214 31.4534 130.214 32.2C130.214 33.2667 130.601 33.8 131.374 33.8C131.907 33.8 132.534 33.48 133.254 32.84C134.001 32.1734 134.987 31.1067 136.214 29.64C136.534 29.2667 136.894 29.08 137.294 29.08C137.641 29.08 137.907 29.24 138.094 29.56C138.307 29.88 138.414 30.32 138.414 30.88C138.414 31.9467 138.161 32.7734 137.654 33.36C136.507 34.7734 135.267 35.9334 133.934 36.84C132.627 37.7467 131.134 38.2 129.454 38.2C128.094 38.2 127.067 37.8134 126.374 37.04C125.681 36.24 125.334 35.0934 125.334 33.6C125.334 32.8534 125.521 31.52 125.894 29.6C126.241 27.92 126.414 26.76 126.414 26.12C126.414 25.6934 126.267 25.48 125.974 25.48C125.627 25.48 125.134 25.9334 124.494 26.84C123.881 27.72 123.241 28.8934 122.574 30.36C121.934 31.8267 121.414 33.3734 121.014 35C120.721 36.2534 120.374 37.1067 119.974 37.56C119.601 37.9867 119.001 38.2 118.174 38.2Z" fill="#00C2FF"/>
<path d="M148.738 20.68C149.404 20.68 149.871 20.7867 150.138 21C150.431 21.1867 150.578 21.5734 150.578 22.16C150.578 22.48 150.564 22.7334 150.538 22.92C150.431 23.7467 150.098 25.88 149.538 29.32C149.138 31.64 148.884 33.1734 148.778 33.92C147.764 40.8 146.391 46.2267 144.658 50.2C142.951 54.2 140.658 56.2 137.778 56.2C136.418 56.2 135.311 55.7734 134.458 54.92C133.604 54.0934 133.178 53 133.178 51.64C133.178 49.7467 133.924 47.7067 135.418 45.52C136.911 43.36 139.711 40.6934 143.818 37.52L144.058 35.96C143.604 36.68 143.004 37.24 142.258 37.64C141.538 38.0134 140.818 38.2 140.098 38.2C138.444 38.2 137.124 37.6 136.138 36.4C135.151 35.2 134.658 33.6267 134.658 31.68C134.658 29.5467 135.151 27.5334 136.138 25.64C137.124 23.72 138.431 22.1867 140.058 21.04C141.711 19.8667 143.458 19.28 145.298 19.28C145.884 19.28 146.271 19.4 146.458 19.64C146.671 19.8534 146.844 20.2534 146.978 20.84C147.484 20.7334 148.071 20.68 148.738 20.68ZM141.538 34.16C142.151 34.16 142.738 33.7867 143.298 33.04C143.858 32.2934 144.258 31.2267 144.498 29.84L145.778 23C144.684 23.0267 143.671 23.4534 142.738 24.28C141.804 25.08 141.058 26.1467 140.498 27.48C139.938 28.8134 139.658 30.2267 139.658 31.72C139.658 32.5467 139.818 33.16 140.138 33.56C140.484 33.96 140.951 34.16 141.538 34.16ZM138.218 52.32C138.884 52.32 139.631 51.52 140.458 49.92C141.311 48.32 142.124 45.7734 142.898 42.28C140.844 44.04 139.364 45.6267 138.458 47.04C137.551 48.4534 137.098 49.6934 137.098 50.76C137.098 51.2134 137.178 51.5867 137.338 51.88C137.524 52.1734 137.818 52.32 138.218 52.32Z" fill="#00C2FF"/>
<path d="M152.18 40.16C152.74 40.6667 153.58 40.92 154.7 40.92C155.847 40.92 156.767 40.6134 157.46 40C158.153 39.36 158.5 38.5067 158.5 37.44C158.5 36.56 158.193 35.88 157.58 35.4C156.967 34.92 156.167 34.68 155.18 34.68C154.087 34.68 153.167 35 152.42 35.64C151.7 36.2534 151.34 37.0267 151.34 37.96C151.34 38.8934 151.62 39.6267 152.18 40.16Z" fill="#00C2FF"/>
</svg>
